<svg version="1.1" xmlns="http://www.w3.org/2000/svg" width="540" height="760">	

	<!-- =================================================== CSS ========================================================================= -->		
	
	<!-- ******************************************* LETRA C  *************************************************** -->
	<polygon class="css_texto" points= "100,15 190,15 190,50 140,50 140,80 190,80 190,110 100,110 " fill="black" stroke="black" stroke-width="1"  /> 
	<!-- ******************************************* LETRA S  *************************************************** -->
	<polygon class="css_texto" points= "210,15 300,15 300,50 260,50 300,80 300,110 210,110 210,80 250,80 210,50" fill="black" stroke="black" stroke-width="1"  />
	<!-- ******************************************* LETRA S  *************************************************** -->	
	<polygon class="css_texto" points= "320,15 410,15 410,50 370,50 410,80 410,110 320,110 320,80 360,80 320,50" fill="black" stroke="black" stroke-width="1"  />

	<!-- *******************************************  BLANCO  *************************************************** -->
	<polygon class="css_escudo" points= "5,160 535,160 490,705 260,760 50,705 5,160" fill="RoyalBlue" />
	<!-- ******************************************** NARANJA RERECHA  *************************************************** -->
	<polygon class="css_escudo" points= "260,210 480,210 450,670 260,710 260,210" fill="LightSkyBlue" />
	<!-- ******************************************* NUERO 5  *************************************************** -->
	<polygon class="css_escudo" points= "105,275 425,275 400,610 260,645 125,610 120,530 185,530 190,565 260,580 340,565 345,475 120,475 115,405 360,405 360,340 110,340" fill="white" />
	<!-- ********************************************* NUMERO 5 GRIS a *************************************************** -->
	<polygon class="css_escudo" points= "105,275 260,275 260,340 110,340" fill="Gainsboro" />	
	<!-- ******************************************* NUMERO 5 GRIS b *************************************************** -->
	<polygon class="css_escudo" points= "115,405 120,475 260,475 260,405" fill="Gainsboro" />	
	<!-- ******************************************* NUMERO 5 GRIS b *************************************************** -->
	<polygon class="css_escudo" points= "120,530 185,530 190,565 260,580 260,580 260,645 125,610" fill="Gainsboro" />	
	
</svg>