<svg version="1.1" xmlns="http://www.w3.org/2000/svg" width="540" height="760">	
	<!-- =================================================== html ========================================================================= -->	
	<!-- *******************************************LETRA H  *************************************************** -->

	<polygon class="html5_texto" points= "55,15 85,15 85,50 120,50 120,15 150,15 150,110 120,110 120,75 85,75 85,110 55,110 " fill="black" stroke="black" stroke-width="1"   /> 
	<!-- ******************************************* LETRA T  *************************************************** -->	
	<polygon class="html5_texto" points= "165,15 250,15 250,45 220,45 220,110 190,110 190,45 165,45 165,15" fill="black" stroke="black" stroke-width="1" /> 
	<!-- ******************************************* LETRA M  *************************************************** -->
	<polygon class="html5_texto" points= "265,15 300,15 325,50 350,15 385,15 385,110 350,110 350,65 325,95 300,65 300,110 265,110 265,15" fill="black" stroke="black" stroke-width="1" /> 
	<!-- ******************************************* LETRA L  *************************************************** -->
	<polygon class="html5_texto" points= "400,15 430,15 430,80 475,80 475,110 400,110 400,15" fill="black" stroke="black" stroke-width="1" /> 
	<!-- *******************************************  BLANCO  *************************************************** -->
	<polygon class="escudo_html5" points= "5,160 535,160 490,705 260,760 50,705 5,160" fill="OrangeRed"/>
	<!-- ******************************************* NARANJA RERECHA  *************************************************** -->
	<polygon class="escudo_html5" points= "260,210 480,210 450,670 260,710 260,210" fill="DarkOrange"  />
	<!-- ******************************************* NUERO 5  *************************************************** -->	
	<polygon class="escudo_html5" points= "105,275 425,275 425,275 424,340 180,340 180,405 425,405 400,610 260,645 125,610 120,530 185,530 190,565 260,580 340,565 345,475 120,475" fill="white" />
	<!-- ******************************************* NUMERO 5 GRIS a*************************************************** -->
	<polygon class="escudo_html5" points= "105,275 260,275 260,340 180,340 180,405 260,405 260,475 120,475 105,275" fill="Gainsboro"  />	
	<!-- ******************************************* NUMERO 5 GRIS b *************************************************** -->
	<polygon class="escudo_html5" points= "120,530 185,530 190,565 260,580 260,580 260,645 125,610" fill="Gainsboro"/>	
	

	
</svg>