<svg version="1.1" xmlns="http://www.w3.org/2000/svg" width="540" height="760">	
	<!-- ======================================================= js ========================================================================= -->
	<!-- ******************************************* LETRA J  *************************************************** -->
	<polygon class="js_texto" points= "150,80 205,80 205,15 240,15 240,110 150,110" fill="black" stroke="black" stroke-width="1"  /> 
	<!-- ******************************************* LETRA S  *************************************************** -->
	<polygon class="js_texto"  points= "260,15 350,15 350,50 310,50 350,80 350,110 260,110 260,80 300,80 260,50" fill="black" stroke="black" stroke-width="1"  />
	
	<!-- *******************************************  BLANCO  *************************************************** -->
	<polygon class="js_escudo" points= "5,160 535,160 490,705 260,760 50,705 5,160" fill="LimeGreen" />
	<!-- ******************************************* NARANJA RERECHA  *************************************************** -->
	<polygon class="js_escudo" points= "260,210 480,210 450,670 260,710 260,210" fill="LawnGreen" />
	<!-- ******************************************* NUERO 5  *************************************************** -->
	<polygon class="js_escudo" points= "105,275 425,275 400,610 260,645 125,610 120,530 185,530 190,565 260,580 340,565 360,340 110,340" fill="white" />	
	<!-- ******************************************* NUMERO 5 GRIS a *************************************************** -->
	<polygon class="js_escudo" points= "105,275 260,275 260,340 110,340" fill="Gainsboro" />	
	<!-- ******************************************* NUMERO 5 GRIS b *************************************************** -->
	<polygon class="js_escudo" points= "120,530 185,530 190,565 260,580 260,580 260,645 125,610" fill="Gainsboro" />	
	
</svg>